<svg class="border shadow-md dark:border-slate-700" viewBox="0 0 581.9 465.52" xmlns="http://www.w3.org/2000/svg" preserveAspectRatio="none" style="width: 581.9px; height: 465.52px;"><rect class="bg" id="bg" x="0" y="0" width="581.9" height="465.52" fill="#ffffff"/><g transform="translate(-290.95 174.57) scale(1)"><path d="M467,412Q431,533,292,532Q153,531,87,411Q21,291,84.5,167Q148,43,264,90Q380,137,441.5,214Q503,291,467,412Z" fill="#47455f" stroke="none" stroke-width="10"/></g><g transform="translate(290.95 -290.95) scale(1)"><path d="M453.5,385Q399,479,280.5,496.5Q162,514,136,402.5Q110,291,150.5,204.5Q191,118,311,83.5Q431,49,469.5,170Q508,291,453.5,385Z" fill="#47455f" stroke="none" stroke-width="10"/></g></svg>