<svg class="border shadow-md dark:border-slate-700" viewBox="0 0 465.52 465.52" xmlns="http://www.w3.org/2000/svg" preserveAspectRatio="none" style="width: 465.52px; height: 465.52px;"><rect class="bg" id="bg" x="0" y="0" width="465.52" height="465.52" fill="#ffffff"/><g><path d="M 0 -31.034666666666666V -49.65546666666667 H 23.276 V -24.827733333333335 H 46.552 V -12.413866666666667 H 69.828 V -43.44853333333333 H 93.104 V -12.413866666666667 H 116.38 V -31.034666666666666 H 139.656 V -37.2416 H 162.932 V -24.827733333333335 H 186.208 V -43.44853333333333 H 209.484 V -18.6208 H 232.76 V -12.413866666666667 H 256.036 V -31.034666666666666 H 279.312 V -12.413866666666667 H 302.588 V -31.034666666666666 H 325.864 V -31.034666666666666 H 349.14 V -12.413866666666667 H 372.416 V -37.2416 H 395.692 V -31.034666666666666 H 418.968 V -24.827733333333335 H 442.24399999999997 V -37.2416 H 465.52 V 466.52 H 0 V -31.034666666666666 Z" fill="#617561"/></g><g><path d="M 0 0V 0 H 23.276 V 6.206933333333334 H 46.552 V -12.413866666666667 H 69.828 V 18.6208 H 93.104 V -6.206933333333334 H 116.38 V 18.6208 H 139.656 V 6.206933333333334 H 162.932 V -18.6208 H 186.208 V 0 H 209.484 V 18.6208 H 232.76 V 18.6208 H 256.036 V 0 H 279.312 V -18.6208 H 302.588 V 0 H 325.864 V 12.413866666666667 H 349.14 V 0 H 372.416 V -18.6208 H 395.692 V 6.206933333333334 H 418.968 V 0 H 442.24399999999997 V 6.206933333333334 H 465.52 V 466.52 H 0 V 0 Z" fill="#5c7061"/></g><g><path d="M 0 31.034666666666666V 43.44853333333333 H 23.276 V 43.44853333333333 H 46.552 V 31.034666666666666 H 69.828 V 31.034666666666666 H 93.104 V 31.034666666666666 H 116.38 V 18.6208 H 139.656 V 43.44853333333333 H 162.932 V 43.44853333333333 H 186.208 V 31.034666666666666 H 209.484 V 43.44853333333333 H 232.76 V 43.44853333333333 H 256.036 V 18.6208 H 279.312 V 31.034666666666666 H 302.588 V 24.827733333333335 H 325.864 V 37.2416 H 349.14 V 49.65546666666667 H 372.416 V 31.034666666666666 H 395.692 V 24.827733333333335 H 418.968 V 24.827733333333335 H 442.24399999999997 V 12.413866666666667 H 465.52 V 466.52 H 0 V 31.034666666666666 Z" fill="#576b61"/></g><g><path d="M 0 62.06933333333333V 62.06933333333333 H 23.276 V 74.4832 H 46.552 V 62.06933333333333 H 69.828 V 80.69013333333334 H 93.104 V 62.06933333333333 H 116.38 V 74.4832 H 139.656 V 62.06933333333333 H 162.932 V 74.4832 H 186.208 V 68.27626666666667 H 209.484 V 68.27626666666667 H 232.76 V 43.44853333333333 H 256.036 V 62.06933333333333 H 279.312 V 49.65546666666667 H 302.588 V 68.27626666666667 H 325.864 V 68.27626666666667 H 349.14 V 62.06933333333333 H 372.416 V 62.06933333333333 H 395.692 V 62.06933333333333 H 418.968 V 68.27626666666667 H 442.24399999999997 V 62.06933333333333 H 465.52 V 466.52 H 0 V 62.06933333333333 Z" fill="#526661"/></g><g><path d="M 0 93.104V 105.51786666666666 H 23.276 V 74.4832 H 46.552 V 99.31093333333334 H 69.828 V 74.4832 H 93.104 V 99.31093333333334 H 116.38 V 111.7248 H 139.656 V 93.104 H 162.932 V 105.51786666666666 H 186.208 V 111.7248 H 209.484 V 99.31093333333334 H 232.76 V 99.31093333333334 H 256.036 V 74.4832 H 279.312 V 80.69013333333334 H 302.588 V 86.89706666666666 H 325.864 V 93.104 H 349.14 V 105.51786666666666 H 372.416 V 105.51786666666666 H 395.692 V 105.51786666666666 H 418.968 V 93.104 H 442.24399999999997 V 111.7248 H 465.52 V 466.52 H 0 V 93.104 Z" fill="#4d6161"/></g><g><path d="M 0 124.13866666666667V 124.13866666666667 H 23.276 V 105.51786666666666 H 46.552 V 124.13866666666667 H 69.828 V 124.13866666666667 H 93.104 V 124.13866666666667 H 116.38 V 105.51786666666666 H 139.656 V 142.75946666666667 H 162.932 V 136.55253333333334 H 186.208 V 130.3456 H 209.484 V 117.93173333333333 H 232.76 V 136.55253333333334 H 256.036 V 124.13866666666667 H 279.312 V 124.13866666666667 H 302.588 V 124.13866666666667 H 325.864 V 117.93173333333333 H 349.14 V 117.93173333333333 H 372.416 V 130.3456 H 395.692 V 130.3456 H 418.968 V 124.13866666666667 H 442.24399999999997 V 142.75946666666667 H 465.52 V 466.52 H 0 V 124.13866666666667 Z" fill="#485c61"/></g><g><path d="M 0 155.17333333333335V 167.58720000000002 H 23.276 V 161.38026666666667 H 46.552 V 155.17333333333335 H 69.828 V 161.38026666666667 H 93.104 V 148.96640000000002 H 116.38 V 161.38026666666667 H 139.656 V 173.79413333333335 H 162.932 V 155.17333333333335 H 186.208 V 173.79413333333335 H 209.484 V 173.79413333333335 H 232.76 V 161.38026666666667 H 256.036 V 161.38026666666667 H 279.312 V 161.38026666666667 H 302.588 V 173.79413333333335 H 325.864 V 155.17333333333335 H 349.14 V 167.58720000000002 H 372.416 V 155.17333333333335 H 395.692 V 148.96640000000002 H 418.968 V 161.38026666666667 H 442.24399999999997 V 167.58720000000002 H 465.52 V 466.52 H 0 V 155.17333333333335 Z" fill="#435761"/></g><g><path d="M 0 186.208V 186.208 H 23.276 V 186.208 H 46.552 V 204.8288 H 69.828 V 204.8288 H 93.104 V 204.8288 H 116.38 V 204.8288 H 139.656 V 204.8288 H 162.932 V 186.208 H 186.208 V 204.8288 H 209.484 V 198.62186666666668 H 232.76 V 186.208 H 256.036 V 198.62186666666668 H 279.312 V 186.208 H 302.588 V 167.5872 H 325.864 V 186.208 H 349.14 V 167.5872 H 372.416 V 204.8288 H 395.692 V 192.41493333333332 H 418.968 V 186.208 H 442.24399999999997 V 204.8288 H 465.52 V 466.52 H 0 V 186.208 Z" fill="#3e5261"/></g><g><path d="M 0 217.24266666666665V 211.03573333333333 H 23.276 V 223.44959999999998 H 46.552 V 211.03573333333333 H 69.828 V 217.24266666666665 H 93.104 V 223.44959999999998 H 116.38 V 229.65653333333333 H 139.656 V 235.86346666666665 H 162.932 V 211.03573333333333 H 186.208 V 235.86346666666665 H 209.484 V 235.86346666666665 H 232.76 V 235.86346666666665 H 256.036 V 217.24266666666665 H 279.312 V 229.65653333333333 H 302.588 V 235.86346666666665 H 325.864 V 204.82879999999997 H 349.14 V 235.86346666666665 H 372.416 V 204.82879999999997 H 395.692 V 235.86346666666665 H 418.968 V 217.24266666666665 H 442.24399999999997 V 217.24266666666665 H 465.52 V 466.52 H 0 V 217.24266666666665 Z" fill="#394d61"/></g><g><path d="M 0 248.27733333333333V 248.27733333333333 H 23.276 V 242.0704 H 46.552 V 266.8981333333333 H 69.828 V 266.8981333333333 H 93.104 V 254.48426666666666 H 116.38 V 248.27733333333333 H 139.656 V 260.6912 H 162.932 V 242.0704 H 186.208 V 266.8981333333333 H 209.484 V 248.27733333333333 H 232.76 V 248.27733333333333 H 256.036 V 235.86346666666665 H 279.312 V 229.65653333333333 H 302.588 V 254.48426666666666 H 325.864 V 266.8981333333333 H 349.14 V 254.48426666666666 H 372.416 V 248.27733333333333 H 395.692 V 260.6912 H 418.968 V 260.6912 H 442.24399999999997 V 260.6912 H 465.52 V 466.52 H 0 V 248.27733333333333 Z" fill="#344861"/></g><g><path d="M 0 279.312V 273.1050666666667 H 23.276 V 297.9328 H 46.552 V 279.312 H 69.828 V 285.51893333333334 H 93.104 V 279.312 H 116.38 V 285.51893333333334 H 139.656 V 297.9328 H 162.932 V 285.51893333333334 H 186.208 V 279.312 H 209.484 V 285.51893333333334 H 232.76 V 279.312 H 256.036 V 279.312 H 279.312 V 279.312 H 302.588 V 279.312 H 325.864 V 266.89813333333336 H 349.14 V 297.9328 H 372.416 V 266.89813333333336 H 395.692 V 273.1050666666667 H 418.968 V 297.9328 H 442.24399999999997 V 291.72586666666666 H 465.52 V 466.52 H 0 V 279.312 Z" fill="#2f4361"/></g><g><path d="M 0 310.3466666666667V 328.96746666666667 H 23.276 V 304.13973333333337 H 46.552 V 322.76053333333334 H 69.828 V 310.3466666666667 H 93.104 V 316.5536 H 116.38 V 322.76053333333334 H 139.656 V 322.76053333333334 H 162.932 V 316.5536 H 186.208 V 304.13973333333337 H 209.484 V 328.96746666666667 H 232.76 V 316.5536 H 256.036 V 310.3466666666667 H 279.312 V 297.93280000000004 H 302.588 V 316.5536 H 325.864 V 322.76053333333334 H 349.14 V 322.76053333333334 H 372.416 V 310.3466666666667 H 395.692 V 328.96746666666667 H 418.968 V 322.76053333333334 H 442.24399999999997 V 310.3466666666667 H 465.52 V 466.52 H 0 V 310.3466666666667 Z" fill="#2a3e61"/></g><g><path d="M 0 341.3813333333333V 341.3813333333333 H 23.276 V 341.3813333333333 H 46.552 V 335.1744 H 69.828 V 347.58826666666664 H 93.104 V 360.0021333333333 H 116.38 V 328.96746666666667 H 139.656 V 347.58826666666664 H 162.932 V 335.1744 H 186.208 V 360.0021333333333 H 209.484 V 328.96746666666667 H 232.76 V 353.79519999999997 H 256.036 V 335.1744 H 279.312 V 353.79519999999997 H 302.588 V 341.3813333333333 H 325.864 V 353.79519999999997 H 349.14 V 347.58826666666664 H 372.416 V 341.3813333333333 H 395.692 V 347.58826666666664 H 418.968 V 353.79519999999997 H 442.24399999999997 V 322.76053333333334 H 465.52 V 466.52 H 0 V 341.3813333333333 Z" fill="#253961"/></g><g><path d="M 0 372.416V 353.7952 H 23.276 V 378.6229333333333 H 46.552 V 378.6229333333333 H 69.828 V 391.03679999999997 H 93.104 V 384.82986666666665 H 116.38 V 372.416 H 139.656 V 372.416 H 162.932 V 378.6229333333333 H 186.208 V 372.416 H 209.484 V 384.82986666666665 H 232.76 V 378.6229333333333 H 256.036 V 378.6229333333333 H 279.312 V 372.416 H 302.588 V 372.416 H 325.864 V 391.03679999999997 H 349.14 V 384.82986666666665 H 372.416 V 366.2090666666667 H 395.692 V 378.6229333333333 H 418.968 V 391.03679999999997 H 442.24399999999997 V 384.82986666666665 H 465.52 V 466.52 H 0 V 372.416 Z" fill="#203461"/></g><g><path d="M 0 403.4506666666667V 384.8298666666667 H 23.276 V 391.0368 H 46.552 V 422.07146666666665 H 69.828 V 415.8645333333333 H 93.104 V 403.4506666666667 H 116.38 V 409.6576 H 139.656 V 409.6576 H 162.932 V 384.8298666666667 H 186.208 V 415.8645333333333 H 209.484 V 409.6576 H 232.76 V 422.07146666666665 H 256.036 V 409.6576 H 279.312 V 415.8645333333333 H 302.588 V 403.4506666666667 H 325.864 V 403.4506666666667 H 349.14 V 403.4506666666667 H 372.416 V 409.6576 H 395.692 V 409.6576 H 418.968 V 422.07146666666665 H 442.24399999999997 V 409.6576 H 465.52 V 466.52 H 0 V 403.4506666666667 Z" fill="#1b2f61"/></g><g><path d="M 0 434.4853333333333V 453.1061333333333 H 23.276 V 453.1061333333333 H 46.552 V 422.07146666666665 H 69.828 V 446.89919999999995 H 93.104 V 453.1061333333333 H 116.38 V 434.4853333333333 H 139.656 V 446.89919999999995 H 162.932 V 415.8645333333333 H 186.208 V 434.4853333333333 H 209.484 V 422.07146666666665 H 232.76 V 434.4853333333333 H 256.036 V 434.4853333333333 H 279.312 V 446.89919999999995 H 302.588 V 434.4853333333333 H 325.864 V 434.4853333333333 H 349.14 V 453.1061333333333 H 372.416 V 440.6922666666666 H 395.692 V 440.6922666666666 H 418.968 V 453.1061333333333 H 442.24399999999997 V 453.1061333333333 H 465.52 V 466.52 H 0 V 434.4853333333333 Z" fill="#162a61"/></g></svg>